<mxfile host="65bd71144e">
    <diagram id="-72W-1_LjuiYcz1S8hm-" name="Page-1">
        <mxGraphModel dx="996" dy="369" grid="1" gridSize="10" guides="1" tooltips="1" connect="1" arrows="1" fold="1" page="1" pageScale="1" pageWidth="850" pageHeight="1100" math="0" shadow="0">
            <root>
                <mxCell id="0"/>
                <mxCell id="1" parent="0"/>
                <mxCell id="31" value="" style="rounded=0;whiteSpace=wrap;html=1;fillColor=#CCCCFF;" vertex="1" parent="1">
                    <mxGeometry x="80" y="20" width="240" height="110" as="geometry"/>
                </mxCell>
                <mxCell id="26" style="edgeStyle=orthogonalEdgeStyle;html=1;exitX=0.5;exitY=1;exitDx=0;exitDy=0;entryX=0.5;entryY=0;entryDx=0;entryDy=0;fontSize=16;" parent="1" source="2" target="3" edge="1">
                    <mxGeometry relative="1" as="geometry">
                        <Array as="points">
                            <mxPoint x="140" y="150"/>
                            <mxPoint x="200" y="150"/>
                        </Array>
                    </mxGeometry>
                </mxCell>
                <mxCell id="2" value="a" style="rounded=0;whiteSpace=wrap;html=1;fontSize=16;strokeWidth=2;fillColor=#99FF99;" parent="1" vertex="1">
                    <mxGeometry x="120" y="60" width="40" height="40" as="geometry"/>
                </mxCell>
                <mxCell id="3" value="Array" style="rounded=0;whiteSpace=wrap;html=1;fontSize=16;fillColor=#FFFFCC;" parent="1" vertex="1">
                    <mxGeometry x="140" y="190" width="120" height="40" as="geometry"/>
                </mxCell>
                <mxCell id="32" value="VM" style="text;html=1;strokeColor=none;fillColor=none;align=center;verticalAlign=middle;whiteSpace=wrap;rounded=0;fontSize=18;" vertex="1" parent="1">
                    <mxGeometry x="170" y="20" width="60" height="30" as="geometry"/>
                </mxCell>
                <mxCell id="33" value="b" style="rounded=0;whiteSpace=wrap;html=1;fontSize=16;strokeWidth=2;fillColor=#99FF99;" vertex="1" parent="1">
                    <mxGeometry x="240" y="60" width="40" height="40" as="geometry"/>
                </mxCell>
                <mxCell id="34" style="edgeStyle=orthogonalEdgeStyle;html=1;exitX=0.5;exitY=1;exitDx=0;exitDy=0;entryX=0.5;entryY=0;entryDx=0;entryDy=0;fontSize=16;" edge="1" parent="1" source="33" target="3">
                    <mxGeometry relative="1" as="geometry">
                        <mxPoint x="130" y="90" as="sourcePoint"/>
                        <mxPoint x="100" y="180" as="targetPoint"/>
                        <Array as="points">
                            <mxPoint x="260" y="150"/>
                            <mxPoint x="200" y="150"/>
                        </Array>
                    </mxGeometry>
                </mxCell>
                <mxCell id="36" value="" style="shape=flexArrow;endArrow=classic;html=1;fontSize=18;" edge="1" parent="1">
                    <mxGeometry width="50" height="50" relative="1" as="geometry">
                        <mxPoint x="360" y="100" as="sourcePoint"/>
                        <mxPoint x="440" y="100" as="targetPoint"/>
                    </mxGeometry>
                </mxCell>
                <mxCell id="37" value="Clone" style="text;html=1;strokeColor=none;fillColor=none;align=center;verticalAlign=middle;whiteSpace=wrap;rounded=0;fontSize=18;" vertex="1" parent="1">
                    <mxGeometry x="360" y="60" width="60" height="30" as="geometry"/>
                </mxCell>
                <mxCell id="38" value="" style="rounded=0;whiteSpace=wrap;html=1;fillColor=#E5CCFF;" vertex="1" parent="1">
                    <mxGeometry x="480" y="20" width="240" height="110" as="geometry"/>
                </mxCell>
                <mxCell id="39" value="a" style="rounded=0;whiteSpace=wrap;html=1;fontSize=16;strokeWidth=2;fillColor=#99FF99;" vertex="1" parent="1">
                    <mxGeometry x="520" y="60" width="40" height="40" as="geometry"/>
                </mxCell>
                <mxCell id="40" value="VM" style="text;html=1;strokeColor=none;fillColor=none;align=center;verticalAlign=middle;whiteSpace=wrap;rounded=0;fontSize=18;" vertex="1" parent="1">
                    <mxGeometry x="570" y="20" width="60" height="30" as="geometry"/>
                </mxCell>
                <mxCell id="41" value="b" style="rounded=0;whiteSpace=wrap;html=1;fontSize=16;strokeWidth=2;fillColor=#99FF99;" vertex="1" parent="1">
                    <mxGeometry x="640" y="60" width="40" height="40" as="geometry"/>
                </mxCell>
                <mxCell id="42" style="edgeStyle=orthogonalEdgeStyle;html=1;exitX=0.5;exitY=1;exitDx=0;exitDy=0;entryX=1;entryY=0.5;entryDx=0;entryDy=0;fontSize=16;" edge="1" source="41" parent="1" target="3">
                    <mxGeometry relative="1" as="geometry">
                        <mxPoint x="530" y="90" as="sourcePoint"/>
                        <mxPoint x="600" y="190" as="targetPoint"/>
                        <Array as="points">
                            <mxPoint x="660" y="150"/>
                            <mxPoint x="600" y="150"/>
                            <mxPoint x="600" y="210"/>
                        </Array>
                    </mxGeometry>
                </mxCell>
                <mxCell id="43" style="edgeStyle=orthogonalEdgeStyle;html=1;exitX=0.5;exitY=1;exitDx=0;exitDy=0;entryX=1;entryY=0.5;entryDx=0;entryDy=0;fontSize=16;" edge="1" source="39" parent="1" target="3">
                    <mxGeometry relative="1" as="geometry">
                        <mxPoint x="600" y="190" as="targetPoint"/>
                        <Array as="points">
                            <mxPoint x="540" y="150"/>
                            <mxPoint x="600" y="150"/>
                            <mxPoint x="600" y="210"/>
                        </Array>
                    </mxGeometry>
                </mxCell>
            </root>
        </mxGraphModel>
    </diagram>
</mxfile>